<?xml version="1.0" encoding="utf-8"?>
<!-- Generator: Adobe Illustrator 22.0.1, SVG Export Plug-In . SVG Version: 6.00 Build 0)  -->
<svg version="1.1" id="Camada_1" xmlns="http://www.w3.org/2000/svg" xmlns:xlink="http://www.w3.org/1999/xlink" x="0px" y="0px"
	 viewBox="0 0 301.7 302.4" style="enable-background:new 0 0 301.7 302.4;" xml:space="preserve">
<style type="text/css">
	.st0{fill:#5E5D5D;}
</style>
<path class="st0" d="M165.9,298.5c-3.6,0.4-6.4-1-8.1-4.1c-1.2-2.3-2.8-2.8-5.1-2.6c-0.6,0.1-1.3,0-1.9,0c-1,0-1.8,0.4-2.4,1.4
	c-0.4,0.7-0.8,1.4-1.3,2c-1.6,2-3.5,3.2-6.1,3.2c-5,0-9.9-0.5-14.7-1.8c-2.8-0.8-4.7-2.6-5.6-5.4c-0.4-1.2-0.4-2.7-1.8-3.2
	c-1.8-0.6-3.6-1.4-5.6-1.3c-0.8,0-1.4,0.6-2,1.3c-2.9,3.3-6.4,3.3-10.1,2c-3.4-1.3-6.8-2.9-10.1-4.3c-3.4-1.5-5.5-4.1-5.5-7.7
	c0-2.5-1.1-3.8-3.2-4.8c-0.6-0.3-1.1-0.6-1.7-0.9c-0.9-0.5-1.8-0.7-2.7,0c-4.3,3.2-8,1.9-11.8-1.1c-2.4-1.9-4.8-3.7-7.2-5.6
	c-3.3-2.6-5-5.8-3.6-10.1c0.5-1.6,0-2.8-1.1-3.9c-0.6-0.5-1.2-1.1-1.7-1.7c-1.1-1.2-2.2-1.5-3.9-1c-4.2,1.2-7.5-0.2-10-3.7
	c-2-2.9-4.2-5.6-6.3-8.4c-2.4-3.1-2.8-6.4-0.6-9.8c0.9-1.4,0.8-2.6,0-4c-0.6-1-1.1-2-1.6-2.9c-0.5-0.9-1.3-1.5-2.4-1.4
	c-5.5,0.5-8.1-2.8-9.8-7.3c-1.1-2.8-2.4-5.6-3.5-8.4c-1.4-3.8-1.1-7.3,2.1-10.1c1.3-1.2,1.5-2.4,1-3.8c-0.3-0.9-0.6-1.8-0.9-2.7
	c-0.3-1.1-0.9-2-2.2-2.3c-4.5-1-6.7-4-7.2-8.5c-0.4-3.5-1-7-1.4-10.5c-0.4-3.6,0.9-6.6,4-8.6c0.9-0.6,2.1-1,2.4-2.2
	c0.4-1.9,0.4-3.8-0.1-5.7c-0.2-0.8-0.9-1.3-1.6-1.7c-4.1-2.2-5.2-5.8-4.6-10.1c0.5-3.2,0.9-6.3,1.3-9.5c0.5-4.2,2.7-7.1,6.9-8.2
	c1-0.3,1.8-0.6,2.2-1.6c0.6-1.8,1.7-3.5,1.4-5.5c-0.1-0.6-0.6-1.1-1-1.5c-3.4-3-3.6-6.6-2.1-10.5c1.3-3.3,2.7-6.5,4.1-9.7
	c1.6-3.7,4.4-5.9,8.5-5.8c1.7,0,2.7-0.5,3.5-2c0.4-0.7,0.7-1.4,1.2-2.1c0.8-1.3,1.1-2.6,0-4c-0.4-0.5-0.6-1.1-0.9-1.7
	c-0.9-2.6-0.8-5.1,0.8-7.4c2.3-3.3,4.8-6.4,7.2-9.5c2.6-3.3,5.8-5,10.1-3.4c1.2,0.4,2.2,0.1,3.1-0.7c0.7-0.6,1.4-1.3,2.1-1.9
	c1.1-1.1,1.8-2.3,1.2-3.9c-0.1-0.3-0.2-0.6-0.3-0.9c-0.7-2.9,0-5.4,2.1-7.5c3.5-3.5,7.5-6.5,11.7-9.1c2.5-1.5,5.4-1.6,7.8,0
	c2.2,1.4,3.8,1.1,5.6-0.3c0.4-0.3,0.8-0.5,1.3-0.7c1.2-0.7,1.8-1.7,1.8-3.1c0-4.6,2.5-7.4,6.6-9c3.1-1.2,6.2-2.6,9.3-3.9
	c3.8-1.5,7.3-1.2,10,2.1c1.1,1.3,2.3,1.6,3.8,1.1c1.1-0.4,2.1-0.8,3.2-1.1c1-0.3,1.6-1,1.9-2c0.2-0.6,0.4-1.2,0.6-1.8
	c1-2.8,3.1-4.4,5.9-5.1c4.2-1,8.5-1.4,12.8-1.8c3.5-0.3,6.2,1.1,8.1,4.1c0.7,1.1,1.2,2.4,2.7,2.5c1.9,0.1,3.9,0.5,5.7-0.3
	c0.6-0.3,1.1-1.1,1.5-1.8c1.9-3.6,4.9-5,8.8-4.5c3.8,0.5,7.6,0.7,11.4,1.5c3.6,0.8,6,2.7,7.2,6.2c0.4,1,0.4,2.3,1.7,2.7
	c1.8,0.6,3.5,1.7,5.5,1.6c0.4,0,0.9-0.3,1.3-0.6c0.6-0.5,1.1-1.2,1.7-1.7c2.3-1.9,4.8-2.4,7.6-1.6c4.5,1.3,8.7,3.3,12.8,5.3
	c2.5,1.3,4.1,3.5,4.4,6.5c0.1,1.4-0.4,3.1,1,4c1.6,1.1,3.3,1.9,5.1,2.7c0.6,0.3,1.2-0.1,1.8-0.4c3.9-2.7,7.5-2,11,0.8
	c2.6,2.1,5.3,4.1,8,6.2c3.2,2.5,4.7,5.7,3.4,9.7c-0.5,1.6-0.2,2.8,1,3.9c0.8,0.8,1.6,1.6,2.4,2.3c0.8,0.7,1.7,1,2.7,0.6
	c4.9-1.7,8.3,0.4,11.1,4.2c1.8,2.4,3.7,4.8,5.5,7.3c2.5,3.3,3.5,6.8,0.8,10.6c-0.9,1.2-0.8,2.3-0.1,3.6c0.4,0.7,0.8,1.4,1.1,2.1
	c0.8,1.5,1.9,2.4,3.8,2.3c3.8-0.2,6.4,1.8,8,5.1c1.7,3.6,3.3,7.3,4.7,11c1.3,3.6,1,7-2,9.7c-1.2,1.1-1.6,2.3-1.1,3.9
	c0.3,0.9,0.6,1.8,0.8,2.8c0.3,1.2,0.9,2,2.2,2.3c0.8,0.2,1.6,0.4,2.3,0.8c2.4,1.2,4.1,3,4.7,5.7c0.8,4.2,1.5,8.5,1.8,12.8
	c0.2,3.7-1.1,6.6-4.4,8.4c-1.6,0.9-2.4,2-2.3,3.8c0,0.8,0,1.6,0,2.4c0,1.4,0.5,2.5,1.8,3.1c4.1,2.1,5.3,5.7,4.7,10.1
	c-0.5,3.6-1,7.3-1.6,10.9c-0.5,3.3-2.5,5.4-5.6,6.6c-1,0.4-2.4,0.3-2.9,1.4c-0.9,1.7-1.5,3.5-1.6,5.5c-0.1,0.8,0.4,1.6,1,2.1
	c3.6,3.3,3.7,7.2,1.8,11.4c-1.4,3.1-2.6,6.2-4,9.2c-1.6,3.5-4.2,5.7-8.2,5.4c-1.5-0.1-2.4,0.4-3.2,1.7c-0.5,0.8-1,1.6-1.5,2.5
	c-0.8,1.3-1.1,2.6,0,4c0.4,0.5,0.6,1.1,0.9,1.7c1,2.2,0.9,4.4-0.3,6.4c-2.6,4.4-5.7,8.5-9.3,12.2c-2.2,2.3-5.1,2.8-8,1.9
	c-2-0.6-3.4-0.2-4.6,1.4c-0.5,0.6-1.1,1.1-1.7,1.7c-0.9,0.9-1.2,1.9-0.7,3.1c1.7,4.7-0.3,8-3.9,10.8c-2.7,2.1-5.3,4.1-8,6.1
	c-3.1,2.3-6.4,3-9.8,0.6c-1.6-1.1-2.9-1-4.4,0.1c-0.7,0.5-1.4,0.8-2.1,1.2c-1.2,0.7-2,1.5-1.9,3c0.2,4.7-2.4,7.4-6.4,9.1
	c-2.6,1.1-5.3,2.3-7.9,3.4c-0.7,0.3-1.5,0.6-2.3,0.8c-3.3,0.8-6.4,0.8-8.8-2c-1.3-1.5-2.9-1.9-4.7-1.2c-0.7,0.3-1.5,0.5-2.3,0.7
	c-1.2,0.3-2,0.9-2.2,2.2c-0.9,4.5-4,6.5-8.4,7.3C173.2,297.9,169.5,298.2,165.9,298.5z M41.5,82.3c-2.2-0.7-3.6,0.6-4.6,2.7
	c-0.1,0.3-0.3,0.6-0.5,0.8c-1,1.3-0.9,2.6,0.2,3.9c2.4,2.9,2.5,6.1,1,9.4c-1.3,3.1-2.6,6.2-3.9,9.3c-1.1,2.5-3,4.1-5.6,4.9
	c-0.6,0.2-1.2,0.3-1.9,0.4c-1.3,0.1-2,0.9-2.3,2.1c-0.2,0.8-0.5,1.5-0.7,2.3c-0.5,1.5-0.3,2.8,1.2,3.8c3.3,2.3,4,5.6,3.5,9.3
	c-0.4,2.8-0.8,5.7-1.1,8.6c-0.3,3.3-1.8,5.9-4.8,7.2c-2.6,1.1-3.2,2.8-3,5.3c0.1,1.7,0.3,3.2,2.2,3.8c0.6,0.2,1.2,0.5,1.7,0.9
	c2.2,1.5,3.6,3.5,3.9,6.3c0.3,3,0.6,6,1.1,9c0.6,3.8-0.1,7-3.4,9.3c-1.6,1.1-1.8,2.5-1.1,4.2c0.1,0.1,0.1,0.3,0.2,0.5
	c0.5,2.2,1.4,3.7,4,3.9c2.9,0.2,5,2.1,6.1,4.8c1.5,3.5,2.9,7.1,4.3,10.7c0.9,2.2,0.7,4.4-0.4,6.5c-0.4,0.7-0.8,1.4-1.2,2.1
	c-0.7,1.1-0.6,2.1-0.1,3.2c0.4,0.7,0.8,1.4,1.1,2.1c0.7,1.5,1.7,2.1,3.4,1.8c3.9-0.8,6.8,1,9,4.1c1.7,2.3,3.4,4.7,5.3,6.8
	c2.4,2.7,3.1,5.6,1.8,8.9c-1,2.4-0.1,3.9,1.5,5.5c1.4,1.4,2.6,2.2,4.6,1.1c3.2-1.7,6.2-0.8,8.9,1.3c2.5,1.9,5,3.9,7.6,5.8
	c2.7,2,3.9,4.5,3.8,7.8c0,0.3,0,0.6-0.1,1c-0.3,1.7,0.5,2.7,1.9,3.4c0.3,0.1,0.6,0.3,0.8,0.5c1.7,1.2,3.3,1.5,5.2,0
	c2.4-1.9,5.2-2.3,8.2-1.1c3.3,1.3,6.5,2.6,9.8,4c2.7,1.1,4.4,3.1,5.1,6c0.2,0.6,0.2,1.3,0.3,1.9c0.2,1,0.8,1.7,1.8,2.1
	c0.9,0.3,1.8,0.6,2.7,0.9c1.5,0.5,2.7,0.2,3.7-1.2c2.2-3.1,5.2-4,8.8-3.5c2.8,0.5,5.7,1,8.5,1.2c3.9,0.2,6.7,1.9,8.2,5.5
	c0.3,0.8,0.8,1.5,1.5,1.7c1.7,0.5,3.5,0.4,5.2,0.1c1.2-0.2,1.6-1.4,2.1-2.4c1.3-2.5,3.2-4.4,6.2-4.8c3.5-0.4,7-0.9,10.5-1.4
	c3.5-0.5,6.5,0.3,8.4,3.3c1.1,1.7,2.3,1.9,4,1.5c2.7-0.7,4.6-1.6,4.9-4.9c0.2-2.4,1.8-4.5,4.2-5.5c3.8-1.6,7.7-3.2,11.5-4.7
	c2.2-0.9,4.4-0.5,6.5,0.7c0.7,0.4,1.3,0.9,2,1.4c0.5,0.3,1.2,0.6,1.8,0.3c1.4-0.7,2.8-1.5,4.2-2.2c0.6-0.3,0.8-1,0.9-1.6
	c0-0.6,0-1.3-0.1-1.9c-0.4-3.6,1.2-6.1,4-8.2c2.2-1.6,4.3-3.3,6.4-5c3.1-2.5,6.3-3.8,10.1-1.7c0.7,0.4,1.6,0.6,2.3,0.1
	c1.6-1.1,3.1-2.3,3.9-4.1c0.6-1.1-0.2-2.2-0.6-3.2c-1.1-2.8-0.5-5.3,1.3-7.6c2-2.5,3.8-5.1,5.8-7.7c2.4-3.2,5.3-5.1,9.5-4.1
	c1.3,0.3,2.1-0.2,2.7-1.4c0.4-0.7,0.7-1.4,1.2-2.1c1-1.5,0.9-2.9-0.2-4.3c-2.3-2.9-2.3-6.1-0.8-9.5c1-2.3,2.1-4.7,3-7.1
	c1.4-3.9,3.7-6.7,8.1-7.1c1.5-0.1,2.2-1,2.6-2.4c0.2-0.6,0.4-1.2,0.6-1.8c0.6-1.7,0.5-3-1.2-4.1c-3.1-2.1-4-5.3-3.4-8.9
	c0.5-3.5,1-7,1.4-10.5c0.3-2,1.2-3.6,2.9-4.7c0.9-0.6,1.9-1.1,2.9-1.7c0.5-0.3,1.2-0.8,1.4-1.3c0.6-1.7,0.5-3.5,0.2-5.2
	c-0.2-1.3-1.4-1.6-2.4-2.1c-3.3-1.4-4.8-3.9-5.1-7.5c-0.1-2.5-0.5-5.1-1-7.6c-0.9-4.3-0.2-8,3.6-10.6c1.1-0.8,1.2-1.8,0.9-3
	c-0.2-0.9-0.5-1.8-0.8-2.8c-0.3-1.2-1.1-1.9-2.3-2.1c-0.5-0.1-0.9-0.2-1.4-0.3c-3.2-0.8-5.3-2.8-6.4-5.9c-0.9-2.4-1.8-4.8-2.9-7.1
	c-1.9-3.9-2.3-7.6,0.8-11.2c0.1-0.1,0.2-0.3,0.3-0.4c0.5-0.7,0.4-1.5,0-2.2c-0.2-0.4-0.5-0.8-0.7-1.3c-1-2.3-2.3-3.6-5.1-3.1
	c-2.5,0.5-4.9-0.6-6.5-2.4c-2.9-3.4-5.5-7.1-8.1-10.7c-1.3-1.8-1.5-3.9-0.7-6c0.3-0.7,0.7-1.5,0.8-2.2c0.1-0.6,0.1-1.3-0.2-1.8
	c-0.9-1.5-2.1-2.8-3.8-3.6c-1.1-0.6-2.2,0.1-3.2,0.5c-3,1-5.6,0.6-8.1-1.4c-2.2-1.8-4.5-3.7-6.9-5.2c-3.5-2.2-5.1-5.1-4.6-9.2
	c0-0.3,0.1-0.6,0.1-1c0-1-0.4-1.8-1.3-2.4c-2.4-1.5-4.6-2.8-7.4-0.5c-2.3,1.9-4.9,1.9-7.7,0.6c-2.8-1.3-5.6-2.5-8.4-3.5
	c-3.7-1.3-5.9-3.6-6.6-7.5c-0.1-0.8-0.2-1.7-0.9-2.2c-1.6-1.2-3.5-1.4-5.4-1.8c-1.3-0.2-1.9,1-2.6,1.9c-2,2.5-4.6,3.4-7.7,3
	c-3.6-0.4-7.3-0.8-10.9-1.3c-2.3-0.3-4.2-1.5-5.4-3.6c-0.5-0.8-0.9-1.7-1.3-2.6c-0.5-0.9-1.3-1.4-2.3-1.5c-1.3,0-2.6,0-3.8,0
	c-0.8,0-1.5,0.5-1.9,1.3c-0.5,0.8-0.8,1.8-1.3,2.5c-1.3,1.9-2.9,3.4-5.3,3.7c-4,0.5-7.9,1-11.9,1.3c-2.7,0.3-5.1-0.6-6.8-2.8
	c-0.3-0.4-0.6-0.7-0.9-1.1c-0.8-1.1-1.7-1.3-2.9-0.9c-0.8,0.3-1.5,0.5-2.3,0.7c-1.8,0.3-2.7,1.3-2.9,3.2c-0.4,3.7-2.7,6-6.1,7.3
	c-2.8,1.1-5.7,2.2-8.4,3.5c-3.1,1.4-6,1.3-8.5-0.8c-1.8-1.5-3.4-1.6-5.1-0.2c-0.2,0.2-0.5,0.3-0.8,0.5c-1.8,0.8-2.7,1.9-2.2,4.1
	c0.7,3.3-0.7,5.9-3.4,7.9c-2.9,2.2-5.8,4.5-8.8,6.7c-1.9,1.5-4.1,1.8-6.4,1.3c-0.9-0.2-1.8-0.6-2.7-0.9c-0.6-0.2-1.3-0.1-1.8,0.3
	c-1.5,1-2.8,2.2-3.5,3.8c-0.5,1.1,0.2,2.2,0.5,3.2c0.8,2.6,0.6,5-1.1,7.3c-2.2,2.9-4.4,5.9-6.7,8.8C47.5,81.2,45,82.5,41.5,82.3z
	 M166.1,292.8c3.3-0.5,6.9-1,10.5-1.6c1.1-0.2,1.3-1.2,0.4-2.1c-2.4-2.3-2.4-2.3-0.9-5.1c0.3-0.6,0.7-1.1,0.2-1.7
	c-0.3-0.3-0.9-0.3-1.3-0.3c-1.6,0.2-3.1,0.5-4.7,0.7c-1.7,0.2-3.5,0.4-5.2,0.6c-0.6,0.1-1.3,0.3-1.4,1c-0.1,0.6,0.5,0.7,0.8,1
	c2.1,2.2,2.1,2.6,0.4,5.3c-0.2,0.3-0.5,0.5-0.5,0.8c-0.2,0.5,0,0.9,0.5,1.1C165.2,292.7,165.5,292.7,166.1,292.8z M138.9,292.7
	c0.9-0.1,1.8,0.2,2.1-0.8c0.2-0.7-0.4-1.1-0.8-1.6c-1.3-2-1.3-2.7-0.2-4.3c1.8-2.4,1.8-2.5-1.2-2.9c-3-0.4-6-0.8-9-1.2
	c-0.3,0-0.7,0.1-0.9,0.3c-0.4,0.4-0.3,0.8,0,1.2c0.4,0.5,0.8,1,1.1,1.6c0.5,1.1,0.3,2.1-0.4,3.1c-0.6,0.8-2.5,0.8-1.8,2.3
	c0.5,1,2,0.8,3.1,1C133.7,292,136.3,292.4,138.9,292.7z M212.8,24c-0.2-0.2-0.5-0.7-0.9-0.8c-3.4-1.4-6.7-2.8-10.1-4.2
	c-0.4-0.2-1-0.2-1.3,0.3c-0.2,0.4-0.1,0.8,0.1,1.3c0.9,3.2,0.9,3.2-1.8,4.9c-0.1,0.1-0.3,0.1-0.4,0.2c-0.6,0.4-0.7,1.2-0.1,1.5
	c3.5,1.5,7,3,10.5,4.5c0.2,0.1,0.6,0,0.9-0.1c0.5-0.3,0.3-0.7,0.1-1.2c-1.2-3.3-1.1-3.7,1.9-5.1c0.3-0.1,0.6-0.2,0.9-0.3
	C212.8,24.8,213,24.5,212.8,24z M238.4,50.3c0.7-0.5,0.6-1,0.6-1.4c0.1-3.3,0.1-3.4,3.3-4c0.6-0.1,1.3,0,1.4-0.8
	c0-0.4-0.3-0.9-0.6-1.2c-1.3-1.1-2.7-2.3-4.1-3.3c-1.9-1.4-3.6-3-6-3.9c-0.3,5.3-0.3,5.3-4.9,6.7C231.5,45.4,234.8,48.1,238.4,50.3z
	 M128.9,20.7c0.6,0.7,1.4,0.5,2.2,0.4c2.4-0.3,4.7-0.6,7.1-0.9c0.9-0.1,1.9-0.2,2.8-0.4c0.9-0.2,1-1.1,0.4-1.8
	c-2.4-2.4-2.4-2.4-0.6-5.4c0.2-0.4,0.2-0.9,0.3-1.3c-1.5-0.7-2.9-0.4-4.3-0.2c-2.8,0.4-5.7,0.5-8.4,1.4c-0.3,0.1-0.4,0.4-0.6,0.7
	C130.9,16.5,131.3,15.4,128.9,20.7z M291.6,126.3c-0.8,0.6-1,0.8-1.2,1c-2.3,2.4-2.3,2.4-5.2,1.2c-1.6-0.6-2.1-0.3-1.9,1.2
	c0.4,3,0.8,5.9,1.3,8.9c0.1,0.7,0,1.6,1.1,1.9c0.3-0.3,0.6-0.6,0.9-0.9c2.1-1.9,2.6-2,4.9-0.5c0.3,0.2,0.5,0.4,0.7,0.6
	c0.3,0.1,0.6,0.2,0.8,0.2c0.5-0.1,0.7-0.6,0.7-1.1C293.3,134.8,292.9,130.7,291.6,126.3z M293.8,165.2c-0.1-0.5-0.1-1-0.2-1.5
	c-0.2-0.5-0.6-0.8-1.1-0.4c-0.5,0.4-0.9,0.9-1.4,1.2c-1.5,1-2.4,1-3.8-0.2c-0.4-0.3-0.6-0.7-0.9-1.1c-0.3-0.4-0.5-0.9-1.1-0.5
	c-0.2,0.2-0.5,0.5-0.5,0.7c-0.6,3.6-1.1,7.2-1.6,10.8c0,0.3,0,0.7,0.2,0.9c0.3,0.4,0.8,0.3,1.2,0c3.2-1.7,3.2-1.7,5.5,0.5
	c1.1,1,1.7,0.9,1.9-0.3C292.7,172,293.3,168.5,293.8,165.2z M37.1,232c0.1,0.5,0,1,0.2,1.4c2,3.2,4.4,6.2,6.9,9
	c0.2,0.2,0.6,0.3,0.9,0.3c0.5-0.1,0.7-0.5,0.8-1c0.7-3.4,0.7-3.4,4-3.8c1.2-0.2,1.5-0.9,0.7-2c-2-2.7-4-5.3-6.1-7.9
	c-0.3-0.3-0.8-0.4-1.2-0.6C42,231.8,42,231.8,37.1,232z M176.3,21.2c0.4-1.3-0.3-1.7-0.7-2.4c-1-2-0.9-2.6,0.7-4.1
	c0.2-0.2,0.5-0.3,0.8-0.5c0.4-0.3,0.7-0.7,0.5-1.1c-0.2-0.4-0.7-0.7-1.1-0.8c-3.5-0.5-6.9-0.9-10.4-1.3c-0.6-0.1-1.3-0.2-1.6,0.5
	c0,0.2-0.1,0.4,0,0.5c0.2,0.3,0.4,0.5,0.5,0.8c1.8,2.9,1.8,2.9-1,5.3c-0.2,0.2-0.4,0.6-0.4,0.7c0.2,0.4,0.6,0.9,0.9,0.9
	C168.5,20.2,172.5,20.7,176.3,21.2z M254.2,237.2c0.6,1.1,1.3,0.8,1.8,0.7c1.9-0.2,3,0.7,3.6,2.4c0.3,0.8-0.4,2.2,1,2.2
	c0.8,0,1.3-0.9,1.7-1.5c1.7-2.3,3.5-4.5,5.2-6.9c0.5-0.7,1.3-1.5,0.9-2.6c-1.1-0.5-2.1,0.6-3.2,0.3c-1-0.2-1.7-0.7-2.3-1.6
	c-0.6-0.8-0.1-2.2-1.2-3C258.9,230.7,256.4,233.9,254.2,237.2z M228.4,260.8c0.8,0.9,1.6,0.6,2.4,0.9c1.5,0.6,2.2,1.7,2.2,3.3
	c0,0.8-1.2,1.9,0.2,2.4c0.5,0.2,1.5-0.4,2.1-0.9c2.8-2.1,5.5-4.3,8.2-6.5c0.2-0.2,0.3-0.6,0.3-0.9c0-0.7-0.5-0.6-1-0.7
	c-3.4-0.4-3.6-0.6-3.8-4c0-0.5,0.1-0.9-0.8-1.4C234.9,255.4,231.4,257.8,228.4,260.8z M262.1,76.1c0.2-0.2,0.4-0.4,0.5-0.7
	c0.1-0.5-0.1-1,0.1-1.4c0.5-1.8,1.6-2.6,3.5-2.6c0.8,0,1.6,1,2.2,0.2c0.8-0.9-0.2-1.8-0.7-2.5c-1.9-2.5-3.9-5-6-7.5
	c-0.8-1-1.5-0.7-1.9,0.5c-1,3.4-1,3.4-4.6,3.3c-0.3,0-0.6,0.1-0.9,0.2C255.7,68.7,258.8,72.8,262.1,76.1z M27.6,196.7
	c-0.2,0-0.4,0-0.5,0.1c-1.3,2.7-2.9,4.6-6.3,2.6c-0.5-0.3-1.2,0.6-0.9,1.2c1.3,3.2,2.7,6.5,4.1,9.7c0.2,0.5,0.7,1.3,1.2,1.4
	c1.2,0.2,0.8-1.1,1.1-1.7c1.1-2.1,1.7-2.4,4.7-1.7c0.5,0.1,0.9,0.3,1.3-0.1c0.5-0.4,0.3-0.9,0.1-1.3c-0.9-2.2-1.8-4.4-2.8-6.6
	C29,199.1,28.9,197.6,27.6,196.7z M277.8,195.8c-1.8,4.4-3.2,7.9-4.6,11.4c-0.2,0.4,0,0.9,0.1,1.4c0.4,0,0.7,0.1,0.9,0
	c3.7-1.2,3.8-1.2,5.1,2.4c0.2,0.5,0.4,0.9,0.9,0.9c0.3,0,0.6-0.3,0.8-0.5c1.9-3.4,3.3-6.9,4.5-10.5c0.3-0.9-0.4-1.5-1.4-1.2
	c-3.3,0.8-3.3,0.8-5-1.8C278.7,197.4,278.5,197,277.8,195.8z M77.5,260.8c-3.4-2.6-6.7-5.3-10.2-7.6c-0.4,0.5-0.6,0.7-0.7,1
	c-0.5,3.6-0.4,3.6-4,4.3c-0.3,0.1-0.6,0.3-0.7,0.5c-0.2,0.5,0,0.9,0.3,1.3c2.8,2.6,5.8,5,9.1,7c0.4,0.3,0.9,0.4,1.3,0
	c0.2-0.2,0.2-0.6,0.2-0.9c-0.4-4.1-0.3-4.3,4-5C76.9,261.4,77,261.3,77.5,260.8z M77,42.4c-0.5-0.3-0.8-0.5-1-0.6
	c-0.3-0.1-0.6,0-0.9-0.1c-2.3-0.7-2.7-1.3-2.6-3.7c0-0.3,0.2-0.6,0.2-0.9c0.1-0.7-0.5-1.3-1-1c-3.6,2.1-6.8,4.7-9.8,7.5
	c-0.5,0.5-0.2,1.4,0.4,1.5c3.9,0.7,3.9,0.7,4.5,4.4c0.1,0.4,0.3,0.6,1.2,0.3C70.9,47.7,74.2,45.4,77,42.4z M197.3,276.7
	c0.5,0.6,0.5,0.7,0.7,0.8c3.3,1.8,3.3,1.8,2.5,5.8c-0.1,0.6,0.6,1.3,1.2,1.1c3.8-1.3,7.6-2.5,10.9-4.7c0.5-0.3,0.3-1.2-0.4-1.4
	c-3.6-1.5-3.6-1.5-2.7-5c0.1-0.5,0.3-0.9-0.6-1.3C205.2,273.2,201.4,274.7,197.3,276.7z M108.6,276.9c-4.2-2.1-7.6-3.3-11-4.7
	c-1.1-0.5-1.7,0.1-1.5,1.3c0.5,3.5,0.5,3.5-2.9,4.7c-0.3,0.1-0.7,0.3-0.7,0.5c0.1,0.4,0.2,1.1,0.5,1.2c3.5,1.9,7.2,3.3,11,4.5
	c0.2,0.1,0.6-0.1,0.9-0.3c0.4-0.4,0.2-0.8,0-1.3c-1.1-2.8-1-3.2,1.1-4.7C106.6,277.8,107.2,277.6,108.6,276.9z M107.8,26.1
	c-0.2-0.2-0.4-0.4-0.6-0.5c-3.4-1.8-3.4-1.9-2.1-5.3c0.1-0.3,0.2-0.8,0.1-0.9c-0.3-0.3-0.9-0.6-1.2-0.5c-2.8,1.1-5.6,2.2-8.4,3.5
	c-2.3,1.1-2.3,1.3-0.2,3.3c1.4,1.3,1.3,2.8,0.6,4.4c-0.2,0.4-0.4,1,0,1.3c0.3,0.2,0.9,0.3,1.3,0.1c3-1.2,5.9-2.4,8.8-3.7
	C106.9,27.4,107.7,27.1,107.8,26.1z M12.1,163.6c-0.5,3.8,0.8,7.5,1.1,11.2c0,0.6,0.1,1.4,0.8,1.6c0.8,0.3,1-0.4,1.5-0.8
	c2.2-2.1,2.2-2.1,4.9-0.7c0.5,0.3,1.1,0.9,1.6,0.3c0.3-0.3,0.3-0.9,0.2-1.3c-0.4-3.3-0.9-6.6-1.4-10c-0.1-1-1.1-1.2-1.7-0.5
	c-0.7,0.9-1.4,1.8-2.6,1.9c-1.3,0.1-2.1-0.6-2.9-1.4C13.2,163.5,12.8,163.2,12.1,163.6z M50.9,65.7c0,0.2-0.2,0-1-0.1
	c-3.6-0.6-3.6-0.6-4-4.3c0-0.3-0.2-0.6-0.4-0.7c-0.2-0.1-0.7,0-0.9,0.2c-1.9,2.3-3.9,4.6-5.7,7c-0.7,0.9-1.3,1.8-1.8,2.8
	c-0.2,0.4,0,1,0.5,1.1c0.4,0.1,0.9-0.3,1.4-0.3c2.5-0.1,3,0.3,3.7,2.7c0.1,0.3,0,0.6,0.1,0.9c0.2,0.7,1,0.9,1.4,0.4
	c2.2-2.9,4.4-5.8,6.6-8.7C50.9,66.6,50.9,66.4,50.9,65.7z M14.1,126.8c-1.1,2.5-2.3,9.9-2.1,12.5c0.1,0.7,0.7,0.9,1.4,0.4
	c3-1.9,3-1.9,5.5,0.1c1,0.8,1.9,0.5,2-0.6c0.4-3.5,0.7-6.9,1-10.4c0-0.1-0.2-0.3-0.3-0.4C17.3,129.7,17.3,129.7,14.1,126.8z
	 M278,107.7c0.5-1.1,0.7-1.5,0.9-1.9c1.5-2.7,1.7-2.8,4.9-2.1c0.2,0,0.3,0.1,0.4,0.2c0.7,0.1,1.3-0.5,1.1-1.1
	c-1.1-3.3-2.3-6.6-4.1-9.6c-0.4-0.6-1.2-0.8-1.5-0.1c-1.2,2.5-3,3-5.5,2c-0.9-0.4-1.2,0.4-1.1,0.9C274.4,99.7,276,103.3,278,107.7z
	 M27.9,106.4c1.9-3.2,3.2-6.8,4.4-10.5c-0.5-0.2-0.8-0.5-1-0.5c-2.2,0.6-4,0.1-5.3-2c-0.5-0.9-1.4-0.4-1.9,0.3c-2,2.9-3,6.3-4,9.6
	c-0.1,0.2,0.2,0.7,0.4,0.8c0.2,0.1,0.6,0.1,0.9-0.1c0.9-0.6,1.8-1.4,3.1-0.8c1.1,0.5,1.8,1.3,2.3,2.4
	C26.7,106.1,26.9,106.5,27.9,106.4z"/>
</svg>
